<svg width="16" height="16" viewBox="0 0 16 16" fill="none" xmlns="http://www.w3.org/2000/svg">
<g clip-path="url(#clip0_416_7885)">
<path d="M10.318 8.59375L11.328 14.2778C11.3393 14.3447 11.3299 14.4135 11.3011 14.4749C11.2722 14.5364 11.2253 14.5875 11.1666 14.6216C11.1079 14.6557 11.0402 14.671 10.9725 14.6656C10.9049 14.6601 10.8405 14.6341 10.788 14.5911L8.40132 12.7997C8.2861 12.7137 8.14614 12.6672 8.00232 12.6672C7.8585 12.6672 7.71854 12.7137 7.60332 12.7997L5.21265 14.5904C5.1602 14.6334 5.0959 14.6593 5.02832 14.6648C4.96074 14.6702 4.8931 14.655 4.83443 14.621C4.77576 14.587 4.72884 14.536 4.69993 14.4746C4.67103 14.4133 4.66151 14.3446 4.67265 14.2778L5.68199 8.59375" stroke="#E60076" stroke-width="1.66604" stroke-linecap="round" stroke-linejoin="round"/>
<path d="M8 9.33301C10.2091 9.33301 12 7.54215 12 5.33301C12 3.12387 10.2091 1.33301 8 1.33301C5.79086 1.33301 4 3.12387 4 5.33301C4 7.54215 5.79086 9.33301 8 9.33301Z" stroke="#E60076" stroke-width="1.66604" stroke-linecap="round" stroke-linejoin="round"/>
</g>
<defs>
<clipPath id="clip0_416_7885">
<rect width="16" height="16" fill="white"/>
</clipPath>
</defs>
</svg>
