<svg width="16" height="16" viewBox="0 0 16 16" fill="none" xmlns="http://www.w3.org/2000/svg">
<g clip-path="url(#clip0_416_7897)">
<path d="M14.4867 12.0005L9.15335 2.66714C9.03706 2.46194 8.86842 2.29127 8.66463 2.17252C8.46084 2.05378 8.22921 1.99121 7.99335 1.99121C7.75749 1.99121 7.52585 2.05378 7.32206 2.17252C7.11828 2.29127 6.94964 2.46194 6.83335 2.66714L1.50001 12.0005C1.38247 12.204 1.32083 12.4351 1.32135 12.6701C1.32187 12.9052 1.38453 13.136 1.50298 13.339C1.62142 13.5421 1.79145 13.7102 1.99581 13.8264C2.20018 13.9425 2.43162 14.0026 2.66668 14.0005H13.3333C13.5673 14.0002 13.797 13.9385 13.9995 13.8213C14.202 13.7042 14.3702 13.5359 14.487 13.3332C14.6039 13.1306 14.6654 12.9007 14.6653 12.6668C14.6653 12.4329 14.6036 12.2031 14.4867 12.0005Z" stroke="#E7000B" stroke-width="1.66667" stroke-linecap="round" stroke-linejoin="round"/>
<path d="M8 6V8.66667" stroke="#E7000B" stroke-width="1.66667" stroke-linecap="round" stroke-linejoin="round"/>
<path d="M8 11.333H8.00667" stroke="#E7000B" stroke-width="1.66667" stroke-linecap="round" stroke-linejoin="round"/>
</g>
<defs>
<clipPath id="clip0_416_7897">
<rect width="16" height="16" fill="white"/>
</clipPath>
</defs>
</svg>
