<svg width="20" height="20" viewBox="0 0 20 20" fill="none" xmlns="http://www.w3.org/2000/svg">
<path d="M8.33005 16.6601C8.32998 16.8149 8.37304 16.9666 8.45441 17.0983C8.53578 17.23 8.65223 17.3364 8.79071 17.4056L10.4567 18.2386C10.5837 18.3021 10.7249 18.3321 10.8668 18.3256C11.0086 18.3192 11.1465 18.2766 11.2673 18.2019C11.388 18.1272 11.4877 18.0229 11.5568 17.8988C11.6259 17.7748 11.6621 17.6351 11.6621 17.4931V11.6621C11.6623 11.2492 11.8157 10.8511 12.0927 10.545L18.1095 3.89014C18.2174 3.77065 18.2883 3.62248 18.3137 3.46355C18.3391 3.30461 18.3179 3.14171 18.2527 2.99456C18.1875 2.8474 18.0811 2.72229 17.9463 2.63435C17.8115 2.54641 17.6541 2.4994 17.4931 2.49902H2.49902C2.33793 2.49908 2.1803 2.54585 2.04525 2.63367C1.91019 2.72148 1.80349 2.84658 1.73808 2.9938C1.67267 3.14102 1.65135 3.30405 1.6767 3.46313C1.70206 3.62222 1.773 3.77055 1.88094 3.89014L7.89939 10.545C8.17639 10.8511 8.32987 11.2492 8.33005 11.6621V16.6601Z" stroke="#383535" stroke-width="1.66601" stroke-linecap="round" stroke-linejoin="round"/>
</svg>
