<svg width="24" height="24" viewBox="0 0 24 24" fill="none" xmlns="http://www.w3.org/2000/svg">
<path d="M15.9136 20.3415V4.34784C15.9136 3.81762 15.703 3.30911 15.3281 2.93419C14.9532 2.55926 14.4447 2.34863 13.9144 2.34863H9.91602C9.38579 2.34863 8.87729 2.55926 8.50236 2.93419C8.12744 3.30911 7.91681 3.81762 7.91681 4.34784V20.3415" stroke="#99A1AF" stroke-width="1.99921" stroke-linecap="round" stroke-linejoin="round"/>
<path d="M19.9121 6.34717H3.9184C2.81427 6.34717 1.91919 7.24224 1.91919 8.34638V18.3424C1.91919 19.4466 2.81427 20.3416 3.9184 20.3416H19.9121C21.0162 20.3416 21.9113 19.4466 21.9113 18.3424V8.34638C21.9113 7.24224 21.0162 6.34717 19.9121 6.34717Z" stroke="#99A1AF" stroke-width="1.99921" stroke-linecap="round" stroke-linejoin="round"/>
</svg>
