<svg width="27" height="27" viewBox="0 0 27 27" fill="none" xmlns="http://www.w3.org/2000/svg">
<path d="M18.8589 13.5897L13.582 8.48456C12.9444 7.86918 12.4081 7.18417 11.973 6.42954C11.538 5.67491 11.3205 4.85309 11.3205 3.96407C11.3205 2.86294 11.7059 1.92698 12.4767 1.15619C13.2474 0.385396 14.1834 0 15.2845 0C16.0042 0 16.6687 0.173506 17.2781 0.520518C17.8875 0.86753 18.4144 1.30941 18.8589 1.84617C19.3033 1.30941 19.8303 0.86753 20.4397 0.520518C21.0491 0.173506 21.7136 0 22.4332 0C23.5344 0 24.4703 0.385396 25.2411 1.15619C26.0119 1.92698 26.3973 2.86294 26.3973 3.96407C26.3973 4.85309 26.1832 5.67491 25.755 6.42954C25.3268 7.18417 24.7939 7.86918 24.1563 8.48456L18.8589 13.5897ZM18.8589 10.8051L22.6717 7.11024C23.1196 6.67092 23.5192 6.19314 23.8704 5.6769C24.2217 5.16066 24.3974 4.58971 24.3974 3.96407C24.3974 3.41535 24.2072 2.95081 23.8268 2.57047C23.4465 2.19012 22.982 1.99995 22.4332 1.99995C22.011 1.99995 21.6247 2.11021 21.2743 2.33073C20.9238 2.55125 20.6144 2.83075 20.346 3.16921L18.8589 4.97943L17.3717 3.16921C17.1034 2.83075 16.794 2.55125 16.4435 2.33073C16.0931 2.11021 15.7068 1.99995 15.2845 1.99995C14.7358 1.99995 14.2713 2.19012 13.8909 2.57047C13.5106 2.95081 13.3204 3.41535 13.3204 3.96407C13.3204 4.58971 13.4961 5.16066 13.8473 5.6769C14.1986 6.19314 14.5982 6.67092 15.0461 7.11024L18.8589 10.8051ZM6.66657 21.4359L16.3435 24.1743L24.3025 21.7077C24.2341 21.4051 24.0931 21.173 23.8793 21.0115C23.6656 20.85 23.4238 20.7692 23.1538 20.7692H16.624C16.0422 20.7692 15.5478 20.747 15.141 20.7025C14.7341 20.6581 14.3162 20.5606 13.8871 20.4102L10.8769 19.4153L11.4692 17.4564L14.1692 18.3949C14.5726 18.5316 15.0384 18.6248 15.5666 18.6744C16.0948 18.7239 16.8461 18.7556 17.8205 18.7692C17.8205 18.4393 17.7461 18.1547 17.5974 17.9154C17.4487 17.6761 17.2529 17.5145 17.0102 17.4308L9.2743 14.5897C9.24865 14.5812 9.22515 14.5748 9.20378 14.5705C9.18241 14.5662 9.1589 14.5641 9.13326 14.5641H6.66657V21.4359ZM0 25.3332V12.5641H9.11817C9.25814 12.5641 9.39992 12.5795 9.54351 12.6103C9.6871 12.6411 9.82043 12.677 9.94351 12.718L17.7127 15.5795C18.3179 15.8035 18.8204 16.1996 19.2204 16.768C19.6204 17.3363 19.8204 18.0034 19.8204 18.7692H23.1538C24.111 18.7692 24.8909 19.0782 25.4935 19.6961C26.096 20.3141 26.3973 21.1162 26.3973 22.1025V23.1794L16.4102 26.282L6.66657 23.5025V25.3332H0ZM1.99995 23.3333H4.66662V14.5641H1.99995V23.3333Z" fill="#21657A"/>
</svg>
