<svg width="388" height="388" viewBox="0 0 388 388" fill="none" xmlns="http://www.w3.org/2000/svg">
<rect width="388" height="388" rx="50" fill="#21657A"/>
<path d="M159.868 291.166L142 298.972C147.182 306.467 169.174 316.371 179.523 320.386C240.989 326.809 262.162 281.277 265.066 257.708V206.629C268.282 193.96 280.701 192.428 286.508 193.246C297.407 194.495 300.281 203.73 300.355 208.191L299.685 243.656C297.72 257.217 286.21 263.284 280.701 264.623L276.457 283.582C305.224 280.905 316.139 255.849 318 243.656V205.291C312.64 179.952 291.049 175.997 280.924 177.186C259.125 179.149 251.293 198.079 250.102 207.298L248.315 256.37C247.243 269.217 240.87 279.27 237.817 282.69C207.799 316.594 173.343 302.467 159.868 291.166Z" fill="white"/>
<path d="M72.341 242.692L71 206.718C73.6819 194.205 82.5472 186.161 86.6445 183.703C118.291 165.292 136.037 191.375 140.953 206.718V241.351C137.02 248.859 127.842 250.885 123.744 250.959L122.627 239.564V210.516C121.733 199.612 113.464 194.801 109.441 193.758C106.223 192.686 101.991 193.311 100.278 193.758C90.0863 197.333 87.9855 206.42 88.209 210.516V239.564C89.4605 247.965 95.7333 255.875 98.7132 258.78C107.474 268.432 125.011 268.313 132.684 267.047C149.491 263.829 157.566 247.831 159.503 240.234V171.414C164.331 147.461 184.013 141.176 193.251 141.027C220.249 140.133 229.084 161.658 230.127 172.532L231.021 241.352L232.586 242.022C236.698 256.68 230.872 265.558 227.445 268.165C219.221 263.339 214.781 250.959 213.589 245.373L212.695 172.532C211.264 163.415 203.755 159.348 200.179 158.455C197.676 157.918 193.325 158.231 191.463 158.455C180.378 160.242 177.457 168.584 177.383 172.532L175.148 245.373C168.711 271.829 144.902 281.869 133.802 283.582C88.7454 287.872 74.0544 258.109 72.341 242.692Z" fill="white"/>
<circle cx="102.5" cy="141.5" r="24.5" stroke="white" stroke-width="14"/>
<path d="M191 74C204.15 74 215 84.863 215 98.5C215 112.137 204.15 123 191 123C177.85 123 167 112.137 167 98.5C167 84.863 177.85 74 191 74Z" stroke="white" stroke-width="14"/>
<circle cx="280.5" cy="141.5" r="24.5" stroke="white" stroke-width="14"/>
</svg>
