<svg width="16" height="16" viewBox="0 0 16 16" fill="none" xmlns="http://www.w3.org/2000/svg">
<g clip-path="url(#clip0_416_7508)">
<path d="M10 1.33398H4.00001C3.64639 1.33398 3.30725 1.47446 3.0572 1.72451C2.80715 1.97456 2.66668 2.3137 2.66668 2.66732V13.334C2.66668 13.6876 2.80715 14.0267 3.0572 14.2768C3.30725 14.5268 3.64639 14.6673 4.00001 14.6673H12C12.3536 14.6673 12.6928 14.5268 12.9428 14.2768C13.1929 14.0267 13.3333 13.6876 13.3333 13.334V4.66732L10 1.33398Z" stroke="#E7000B" stroke-width="1.66667" stroke-linecap="round" stroke-linejoin="round"/>
<path d="M9.33332 1.33398V4.00065C9.33332 4.35427 9.4738 4.69341 9.72385 4.94346C9.9739 5.19351 10.313 5.33398 10.6667 5.33398H13.3333" stroke="#E7000B" stroke-width="1.66667" stroke-linecap="round" stroke-linejoin="round"/>
<path d="M6.66667 6H5.33333" stroke="#E7000B" stroke-width="1.66667" stroke-linecap="round" stroke-linejoin="round"/>
<path d="M10.6667 8.66602H5.33332" stroke="#E7000B" stroke-width="1.66667" stroke-linecap="round" stroke-linejoin="round"/>
<path d="M10.6667 11.334H5.33332" stroke="#E7000B" stroke-width="1.66667" stroke-linecap="round" stroke-linejoin="round"/>
</g>
<defs>
<clipPath id="clip0_416_7508">
<rect width="16" height="16" fill="white"/>
</clipPath>
</defs>
</svg>
