<svg width="16" height="16" viewBox="0 0 16 16" fill="none" xmlns="http://www.w3.org/2000/svg">
<path d="M8.00005 0C6.35517 0 4.47461 2.55481 4.47461 5.69491C4.47461 9.75212 7.77689 15.6605 7.89439 15.9102C7.9213 15.9674 7.9597 16 8.00002 16C8.07695 16 8.15033 15.9674 8.20167 15.9102C8.42598 15.6605 13.6949 9.75212 13.6949 5.69491C13.695 2.55481 11.1403 0 8.00005 0ZM8.00005 8.67797C6.35255 8.67797 5.01698 7.34244 5.01698 5.69491C5.01698 4.04737 6.35255 2.71187 8.00005 2.71187C9.64755 2.71187 10.9831 4.04741 10.9831 5.69494C10.9831 7.34247 9.64755 8.67797 8.00005 8.67797Z" fill="#FF7272"/>
<path opacity="0.8" d="M7.89446 15.9102C7.77693 15.6605 4.47468 9.75216 4.47468 5.69494C4.47464 2.55481 6.35521 0 8.00008 0C4.85983 0 2.30518 2.55481 2.30518 5.69491C2.30518 9.75212 7.57411 15.6605 7.79843 15.9102C7.8498 15.9674 7.92318 16 8.00008 16C7.95977 16 7.92136 15.9674 7.89446 15.9102Z" fill="#FF3636"/>
</svg>
