<svg width="14" height="14" viewBox="0 0 14 14" fill="none" xmlns="http://www.w3.org/2000/svg">
<g clip-path="url(#clip0_891_792)">
<path d="M2.2456 5.02746C2.16047 4.64397 2.17354 4.24519 2.28361 3.8681C2.39367 3.49101 2.59717 3.14781 2.87523 2.87033C3.15329 2.59285 3.49692 2.39007 3.87424 2.2808C4.25156 2.17152 4.65036 2.15928 5.03368 2.24522C5.24465 1.91526 5.5353 1.64372 5.87882 1.45563C6.22234 1.26754 6.60768 1.16895 6.99933 1.16895C7.39097 1.16895 7.77631 1.26754 8.11983 1.45563C8.46336 1.64372 8.754 1.91526 8.96498 2.24522C9.34887 2.15891 9.74836 2.17109 10.1263 2.28063C10.5042 2.39018 10.8483 2.59352 11.1265 2.87175C11.4048 3.14998 11.6081 3.49406 11.7176 3.87199C11.8272 4.24991 11.8394 4.6494 11.7531 5.0333C12.083 5.24427 12.3546 5.53492 12.5426 5.87844C12.7307 6.22196 12.8293 6.6073 12.8293 6.99895C12.8293 7.39059 12.7307 7.77593 12.5426 8.11945C12.3546 8.46297 12.083 8.75362 11.7531 8.9646C11.839 9.34791 11.8268 9.74671 11.7175 10.124C11.6082 10.5014 11.4054 10.845 11.1279 11.123C10.8505 11.4011 10.5073 11.6046 10.1302 11.7147C9.75308 11.8247 9.3543 11.8378 8.97081 11.7527C8.76011 12.0839 8.46924 12.3566 8.12513 12.5455C7.78102 12.7345 7.39481 12.8335 7.00224 12.8335C6.60968 12.8335 6.22346 12.7345 5.87936 12.5455C5.53525 12.3566 5.24438 12.0839 5.03368 11.7527C4.65036 11.8386 4.25156 11.8264 3.87424 11.7171C3.49692 11.6078 3.15329 11.405 2.87523 11.1276C2.59717 10.8501 2.39367 10.5069 2.28361 10.1298C2.17354 9.7527 2.16047 9.35392 2.2456 8.97043C1.91311 8.76001 1.63923 8.46891 1.44945 8.12422C1.25967 7.77952 1.16016 7.39243 1.16016 6.99895C1.16016 6.60546 1.25967 6.21837 1.44945 5.87368C1.63923 5.52898 1.91311 5.23788 2.2456 5.02746Z" stroke="#086D63" stroke-width="1.16656" stroke-linecap="round" stroke-linejoin="round"/>
<path d="M5.24951 6.99957L6.41607 8.16612L8.74919 5.83301" stroke="#086D63" stroke-width="1.16656" stroke-linecap="round" stroke-linejoin="round"/>
</g>
<defs>
<clipPath id="clip0_891_792">
<rect width="13.9987" height="13.9987" fill="white"/>
</clipPath>
</defs>
</svg>
