<svg width="27" height="26" viewBox="0 0 27 26" fill="none" xmlns="http://www.w3.org/2000/svg">
<path d="M1.99995 21.3332C1.99995 21.3332 1.99995 21.2948 1.99995 21.2178C1.99995 21.1409 1.99995 21.0426 1.99995 20.9229V7.07686C1.99995 6.95719 1.99995 6.85889 1.99995 6.78196C1.99995 6.70503 1.99995 6.66657 1.99995 6.66657C1.99995 6.66657 1.99995 6.70503 1.99995 6.78196C1.99995 6.85889 1.99995 6.95719 1.99995 7.07686V20.9229C1.99995 20.6922 1.99995 20.6473 1.99995 20.7884C1.99995 20.9294 1.99995 21.111 1.99995 21.3332ZM2.41024 23.3332C1.73674 23.3332 1.16666 23.0999 0.699994 22.6332C0.233331 22.1665 0 21.5964 0 20.9229V7.07686C0 6.40336 0.233331 5.83327 0.699994 5.36661C1.16666 4.89995 1.73674 4.66662 2.41024 4.66662H8V2.41024C8 1.73674 8.23333 1.16666 8.69999 0.699994C9.16666 0.233331 9.73674 0 10.4102 0H14.923C15.5965 0 16.1666 0.233331 16.6332 0.699994C17.0999 1.16666 17.3332 1.73674 17.3332 2.41024V4.66662H22.923C23.5965 4.66662 24.1666 4.89995 24.6332 5.36661C25.0999 5.83327 25.3332 6.40336 25.3332 7.07686V12.7256C25.0273 12.5136 24.7097 12.3299 24.3807 12.1743C24.0516 12.0188 23.7025 11.8803 23.3333 11.7589V7.07686C23.3333 6.95719 23.2948 6.85889 23.2179 6.78196C23.141 6.70503 23.0427 6.66657 22.923 6.66657H2.41024C2.29057 6.66657 2.19227 6.70503 2.11534 6.78196C2.03842 6.85889 1.99995 6.95719 1.99995 7.07686V20.9229C1.99995 21.0426 2.03842 21.1409 2.11534 21.2178C2.19227 21.2948 2.29057 21.3332 2.41024 21.3332H12.1C12.1581 21.6888 12.2346 22.0311 12.3295 22.3601C12.4244 22.6892 12.5419 23.0135 12.682 23.3332H2.41024ZM9.99995 4.66662H15.3333V2.41024C15.3333 2.29057 15.2948 2.19227 15.2179 2.11534C15.141 2.03842 15.0427 1.99995 14.923 1.99995H10.4102C10.2906 1.99995 10.1923 2.03842 10.1153 2.11534C10.0384 2.19227 9.99995 2.29057 9.99995 2.41024V4.66662ZM20.6666 25.9999C19.0017 25.9999 17.5854 25.4161 16.4179 24.2486C15.2504 23.0811 14.6667 21.6648 14.6667 19.9999C14.6667 18.335 15.2504 16.9187 16.4179 15.7512C17.5854 14.5837 19.0017 14 20.6666 14C22.3316 14 23.7478 14.5837 24.9153 15.7512C26.0828 16.9187 26.6666 18.335 26.6666 19.9999C26.6666 21.6648 26.0828 23.0811 24.9153 24.2486C23.7478 25.4161 22.3316 25.9999 20.6666 25.9999ZM21.2564 19.7589V16.0768H20.0769V20.2409L22.8666 23.0307L23.6974 22.1999L21.2564 19.7589Z" fill="#0061A4"/>
</svg>
