<svg width="20" height="20" viewBox="0 0 20 20" fill="none" xmlns="http://www.w3.org/2000/svg">
<path d="M13.3312 17.4972V15.8308C13.3312 14.9469 12.9801 14.0992 12.355 13.4742C11.73 12.8492 10.8823 12.498 9.99842 12.498H4.99927C4.11537 12.498 3.26766 12.8492 2.64265 13.4742C2.01763 14.0992 1.6665 14.9469 1.6665 15.8308V17.4972" stroke="#086D63" stroke-width="1.66638" stroke-linecap="round" stroke-linejoin="round"/>
<path d="M7.49878 9.16553C9.33942 9.16553 10.8315 7.6734 10.8315 5.83277C10.8315 3.99213 9.33942 2.5 7.49878 2.5C5.65815 2.5 4.16602 3.99213 4.16602 5.83277C4.16602 7.6734 5.65815 9.16553 7.49878 9.16553Z" stroke="#086D63" stroke-width="1.66638" stroke-linecap="round" stroke-linejoin="round"/>
<path d="M18.3301 17.4973V15.8309C18.3296 15.0925 18.0838 14.3751 17.6314 13.7915C17.179 13.2079 16.5456 12.7911 15.8306 12.6064" stroke="#086D63" stroke-width="1.66638" stroke-linecap="round" stroke-linejoin="round"/>
<path d="M13.3311 2.60742C14.0479 2.79097 14.6834 3.2079 15.1371 3.79248C15.5909 4.37705 15.8372 5.09602 15.8372 5.83604C15.8372 6.57606 15.5909 7.29502 15.1371 7.8796C14.6834 8.46418 14.0479 8.8811 13.3311 9.06466" stroke="#086D63" stroke-width="1.66638" stroke-linecap="round" stroke-linejoin="round"/>
</svg>
